# xmcd CD database file
#
# Track frame offsets:
#	150
#	20298
#	31085
#	50580
#	63260
#	75155
#	90768
#	99243
#	115295
#	131900
#	149038
#	162230
#
# Disc length: 2369 seconds
#
# Revision: 1
# Processed by: cddbd v1.5.1PL0 Copyright (c) Steve Scherf et al.
# Submitted via: CDex 1.50beta9
#
DISCID=8e093f0c
DTITLE=Joyce Woodson - Landscapes
DYEAR=1993
DGENRE=Country
TTITLE0=My Little Town
TTITLE1=The Cowboy's Waltz
TTITLE2=The Sprinklers Of Salinas
TTITLE3=Like A Spider
TTITLE4=The Old Screen Door
TTITLE5=Drive Myself Home
TTITLE6=Nice Girls Do
TTITLE7=The Hands Of Time
TTITLE8=The Ragged Edge
TTITLE9=Have You Ever Seen The San Joaquin
TTITLE10=Ten Cents A Ride
TTITLE11=The Landscape Of My Heart
EXTD=YEAR: 1993
EXTT0=
EXTT1=
EXTT2=
EXTT3=
EXTT4=
EXTT5=
EXTT6=
EXTT7=
EXTT8=
EXTT9=
EXTT10=
EXTT11=
PLAYORDER=
